# xmcd
#
# Track frame offsets:
#	150
#	16527
#	30426
#	42219
#	54841
#	74850
#	90315
#	106365
#	118438
#	134284
#	143178
#
# Disc length: 2102 seconds
#
# Revision: 0
# Processed by: cddbd v1.4PL0 Copyright (c) Steve Scherf et al.
# Submitted via: dBpowerAMP V4.0
#
DISCID=9008340b
DTITLE=Clay Hess - Red Haired Boy
DYEAR=2002
DGENRE=Bluegrass
TTITLE0=Nashville Blues
TTITLE1=True Blue
TTITLE2=You Found Another
TTITLE3=Just to Hear You Say
TTITLE4=Blessed Assurance
TTITLE5=Home Sweet Home
TTITLE6=He Paid the Price
TTITLE7=Nailed to the Cross
TTITLE8=Song for a Winter's Night
TTITLE9=Daybreak in Dixie
TTITLE10=Our Last Goodbye
EXTD=Corrected Spelling on Artist Name  (Submission #2)
EXTT0=
EXTT1=
EXTT2=
EXTT3=
EXTT4=
EXTT5=
EXTT6=
EXTT7=
EXTT8=
EXTT9=
EXTT10=
PLAYORDER=
